<svg id="Camada_1" data-name="Camada 1" xmlns="http://www.w3.org/2000/svg" viewBox="0 0 324 56.77"><defs><style>.cls-1{font-size:30.21px;fill:#fff;font-family:Montserrat-Black, Montserrat;font-weight:800;}.cls-2{letter-spacing:-0.01em;}.cls-3{letter-spacing:-0.01em;}.cls-4{letter-spacing:0em;}.cls-5{fill:#508714;}</style></defs><title>logoSvg</title><text class="cls-1" transform="translate(48.76 37.14)"><tspan class="cls-2">C</tspan><tspan x="22.17" y="0">U</tspan><tspan class="cls-2" x="45.86" y="0">ST</tspan><tspan x="84.86" y="0">OMER </tspan><tspan class="cls-3" x="191.2" y="0">V</tspan><tspan class="cls-4" x="214.49" y="0">ISIT</tspan></text><path class="cls-5" d="M253.12-100l18.41-23.13h-7.08l-11.33,14.4-11.57-14.4h-7.08Z" transform="translate(-231 156.77)"/><path class="cls-5" d="M273-125.49A22.84,22.84,0,0,0,274-141.9a22.38,22.38,0,0,0-21-14.87,22.25,22.25,0,0,0-20.3,13.22c-3.72,8.65-.27,16.68.36,18.06l6.49.12c-.53-.82-4.42-7.13-1.89-14.4a16.27,16.27,0,0,1,15.58-10.86,16.49,16.49,0,0,1,15.34,12.51,17.27,17.27,0,0,1-2.13,12.75Z" transform="translate(-231 156.77)"/><circle class="cls-5" cx="22" cy="21.71" r="7.32"/></svg>